<?xml version="1.0" standalone="no"?>
<!DOCTYPE svg PUBLIC "-//W3C//DTD SVG 20010904//EN"
 "http://www.w3.org/TR/2001/REC-SVG-20010904/DTD/svg10.dtd">
<svg version="1.0" xmlns="http://www.w3.org/2000/svg"
 width="54.000000pt" height="62.000000pt" viewBox="0 0 54.000000 62.000000"
 preserveAspectRatio="xMidYMid meet">
<metadata>
Created by potrace 1.10, written by Peter Selinger 2001-2011
</metadata>
<g transform="translate(0.000000,62.000000) scale(0.100000,-0.100000)"
fill="#337CCF" stroke="none">
<path d="M0 310 l0 -310 270 0 270 0 0 310 0 310 -270 0 -270 0 0 -310z m425
196 c13 -19 15 -50 13 -162 l-3 -138 -27 -16 c-47 -26 -62 -6 -66 80 l-3 73
-29 -28 c-24 -23 -39 -28 -75 -28 l-45 0 0 -37 c0 -43 -18 -63 -52 -58 -23 3
-23 5 -26 152 -2 101 1 153 9 162 8 9 34 14 79 14 55 0 74 -4 104 -25 20 -13
36 -19 36 -13 0 18 32 48 51 48 10 0 26 -11 34 -24z m-77 -358 c18 -18 14 -46
-9 -59 -25 -13 -227 -2 -246 13 -20 16 -15 38 10 48 34 14 231 12 245 -2z"/>
<path d="M130 498 c0 -2 -2 -67 -3 -146 -2 -141 -2 -142 21 -142 20 0 22 5 22
50 l0 50 49 0 c33 0 56 6 74 20 51 40 43 126 -14 155 -22 12 -148 22 -149 13z
m131 -48 c22 -12 27 -68 7 -88 -7 -7 -31 -12 -55 -12 l-43 0 0 55 0 55 36 0
c19 0 44 -5 55 -10z"/>
<path d="M190 400 c0 -25 4 -30 24 -30 13 0 29 7 36 15 19 23 4 45 -30 45 -27
0 -30 -3 -30 -30z"/>
<path d="M360 355 l0 -145 25 0 25 0 0 145 0 145 -25 0 -25 0 0 -145z"/>
<path d="M100 120 c0 -6 47 -10 120 -10 73 0 120 4 120 10 0 6 -47 10 -120 10
-73 0 -120 -4 -120 -10z"/>
</g>
</svg>
