<?xml version="1.0" standalone="no"?>
<!DOCTYPE svg PUBLIC "-//W3C//DTD SVG 20010904//EN"
 "http://www.w3.org/TR/2001/REC-SVG-20010904/DTD/svg10.dtd">
<svg version="1.0" xmlns="http://www.w3.org/2000/svg"
 width="54.000000pt" height="62.000000pt" viewBox="0 0 54.000000 62.000000"
 preserveAspectRatio="xMidYMid meet">
<metadata>
Created by potrace 1.10, written by Peter Selinger 2001-2011
</metadata>
<g transform="translate(0.000000,62.000000) scale(0.100000,-0.100000)"
fill="#fff" stroke="none">
<path d="M148 521 c-7 -2 -21 -10 -30 -19 -16 -13 -18 -34 -18 -147 0 -143 8
-170 50 -163 25 3 36 18 44 58 5 25 10 27 116 52 11 2 16 -8 18 -42 4 -51 25
-80 57 -80 47 0 55 25 55 177 0 123 -2 142 -18 156 -25 23 -55 21 -77 -3 -15
-16 -21 -17 -39 -8 -22 13 -135 26 -158 19z m154 -49 c17 -17 23 -34 23 -68 0
-63 -35 -94 -106 -94 l-49 0 0 -50 c0 -46 -2 -50 -24 -50 l-23 0 -1 146 -1
146 79 -4 c67 -3 83 -7 102 -26z m108 -117 l0 -145 -25 0 -25 0 0 145 0 145
25 0 25 0 0 -145z"/>
<path d="M170 405 l0 -55 43 0 c52 0 67 13 67 57 0 38 -21 53 -74 53 l-36 0 0
-55z m75 0 c0 -13 -8 -21 -22 -23 -19 -3 -23 1 -23 23 0 22 4 26 23 23 14 -2
22 -10 22 -23z" fill="#fff"/>
<path d="M129 162 c-15 -2 -35 -12 -45 -23 -16 -18 -16 -20 1 -39 16 -18 31
-20 135 -20 104 0 119 2 135 20 17 19 17 21 1 39 -15 16 -34 20 -109 23 -51 2
-104 2 -118 0z m211 -42 c0 -6 -47 -10 -120 -10 -73 0 -120 4 -120 10 0 6 47
10 120 10 73 0 120 -4 120 -10z" fill="#fff""/>
</g>
</svg>
